<?xml version="1.0" encoding="UTF-8" standalone="no"?>
<!-- Created with Inkscape (http://www.inkscape.org/) -->

<svg
   width="100mm"
   height="100mm"
   viewBox="0 0 100 100"
   version="1.1"
   id="svg5"
   inkscape:version="1.1 (c68e22c387, 2021-05-23)"
   sodipodi:docname="avaloir_grille.svg"
   xmlns:inkscape="http://www.inkscape.org/namespaces/inkscape"
   xmlns:sodipodi="http://sodipodi.sourceforge.net/DTD/sodipodi-0.dtd"
   xmlns="http://www.w3.org/2000/svg"
   xmlns:svg="http://www.w3.org/2000/svg">
  <sodipodi:namedview
     id="namedview7"
     pagecolor="#ffffff"
     bordercolor="#666666"
     borderopacity="1.0"
     inkscape:pageshadow="2"
     inkscape:pageopacity="0.0"
     inkscape:pagecheckerboard="0"
     inkscape:document-units="mm"
     showgrid="false"
     inkscape:zoom="0.5"
     inkscape:cx="-497"
     inkscape:cy="137"
     inkscape:window-width="1920"
     inkscape:window-height="1017"
     inkscape:window-x="1912"
     inkscape:window-y="-8"
     inkscape:window-maximized="1"
     inkscape:current-layer="layer1"
     height="200mm" />
  <defs
     id="defs2" />
  <g
     inkscape:label="Calque 1"
     inkscape:groupmode="layer"
     id="layer1">
    <path
       style="fill:#895a44;fill-opacity:1;stroke:#895a44;stroke-width:5.00895;stroke-miterlimit:4;stroke-dasharray:none;stroke-opacity:1"
       d="m -284.49792,15.329237 c -2.75334,-0.145289 -3.22911,-0.287455 -4.12463,-1.232629 l -0.6187,-0.652993 v -30.576319 -30.576317 l 0.57909,-0.759218 c 0.31849,-0.41757 0.94122,-0.943972 1.38385,-1.169778 0.79535,-0.405763 1.27375,-0.410557 40.92437,-0.410557 h 40.11964 l 0.81346,0.734919 c 0.44741,0.404204 1.00965,1.140128 1.24938,1.635374 l 0.43592,0.900459 -0.0881,28.216619 c -0.0613,19.6908237 -0.15822,28.61278 -0.32089,29.527738 -0.36746,2.068162 -0.86935,2.995159 -1.97117,3.640865 l -0.95527,0.559833 -7.05705,0.173368 c -8.02448,0.197146 -66.5977,0.187688 -70.37005,-0.01149 z m 69.98731,-2.26751 c 3.72846,-0.233034 4.41957,-0.476598 5.15223,-1.815817 0.36852,-0.673612 0.4854,-1.214066 0.49056,-2.2685463 0.009,-2.041919 -0.35346,-2.716995 -2.0725,-3.849506 -1.93381,-1.273985 -8.99866,-4.66702604 -11.63175,-5.58637704 -11.92171,-4.16249096 -23.92999,-5.38557596 -35.11577,-3.57665896 -4.68839,0.758186 -10.40472,2.363981 -15.26113,4.28706396 -2.92267,1.15733804 -7.97032,3.79700004 -8.94221,4.67631804 l -0.92959,0.841035 -0.0908,1.898025 c -0.10719,2.242218 0.24007,3.4185753 1.26409,4.2820853 1.04787,0.883617 1.90296,1.131091 4.55574,1.318496 3.27752,0.231532 58.488,0.04971 62.58108,-0.206132 z m 5.28123,-11.5008943 c 0.5526,-1.41103304 0.65287,-37.4988797 0.11373,-40.9831627 -0.24956,-1.613747 -0.74736,-2.313562 -2.1631,-3.041404 -0.76802,-0.394843 -1.35118,-0.430625 -9.58975,-0.588445 -4.82461,-0.0924 -20.00132,-0.172278 -33.72602,-0.177464 l -24.954,-0.0094 -1.08566,0.622616 c -0.59711,0.342438 -1.37027,1.0144 -1.71811,1.493244 l -0.63246,0.870625 0.0683,20.251995 c 0.0531,15.7648697 0.12493,20.30863666 0.32399,20.50765066 0.31628,0.316194 0.91934,0.04747 3.97202,-1.76988496 4.71137,-2.804831 6.09013,-3.488862 11.03337,-5.47381 8.11105,-3.256968 11.80151,-3.8574617 22.47924,-3.6577257 7.428,0.138955 10.15932,0.5758557 15.98294,2.5566497 4.50113,1.530988 12.38763,5.442118 16.08603,7.97749996 1.34879,0.92464304 2.93881,1.77390704 3.32918,1.77821204 0.18622,0.0023 0.40246,-0.158666 0.48018,-0.357167 z"
       id="path5115"
       inkscape:export-filename="C:\Users\SBE\Desktop\styles\reseaux\symbols\avaloir.png"
       inkscape:export-xdpi="96"
       inkscape:export-ydpi="96" />
    <path
       style="fill:#895a44;fill-opacity:1;stroke:#895a44;stroke-width:2.39876;stroke-miterlimit:4;stroke-dasharray:none;stroke-opacity:1"
       d="m 5.2807994,71.784477 c -0.1338,-2.95004 -0.10708,-14.559959 0.0596,-25.79983 l 0.30296,-20.436123 44.3119986,-0.111045 c 24.371586,-0.06104 44.72307,-0.01216 45.225554,0.109669 l 0.913524,0.220691 -0.104086,25.587266 -0.104086,25.587272 -45.180982,0.10289 -45.1809626,0.10289 z m 22.7291256,-7.2859 0.10927,-8.397031 h -8.506397 -8.506399 v 8.506401 8.50639 l 8.397028,-0.10927 8.397028,-0.10927 z m 20.638464,0 0.10935,-8.397031 h -8.708735 -8.70874 v 8.228401 c 0,4.52562 0.124963,8.35342 0.27777,8.50617 0.152799,0.15274 4.022479,0.22865 8.59935,0.1687 l 8.321593,-0.10927 z m 21.344584,7.68882 c 0.123029,-0.50077 0.172081,-4.27945 0.108871,-8.39701 l -0.115053,-7.486511 -8.599377,-0.109271 -8.599359,-0.10927 v 8.236432 c 0,4.53005 0.121433,8.35787 0.269784,8.50624 0.148352,0.14835 3.96911,0.26978 8.49049,0.26978 8.189035,0 8.221557,-0.004 8.444604,-0.91051 z m 17.908998,-7.6969 0.10927,-8.405082 -8.607592,0.10927 -8.607599,0.10927 -0.115053,7.486512 c -0.06341,4.11756 -0.01396,7.89991 0.110866,8.40521 l 0.225964,0.91868 8.387257,-0.10927 8.387258,-0.10947 z M 22.041949,53.263887 c 0.443801,-0.237504 0.872229,-1.045068 1.019804,-1.922201 0.618494,-3.67633 2.075817,-7.299898 4.261723,-10.596593 2.766175,-4.171796 5.57225,-6.856559 9.271901,-8.871055 3.065727,-1.669309 4.850877,-2.481097 5.456094,-2.481097 0.428898,0 0.628878,-0.260915 0.542798,-0.708182 -0.126638,-0.658029 -1.267849,-0.715737 -16.115525,-0.814816 -14.662965,-0.09789 -16.020905,-0.04987 -16.4851046,0.583191 -0.37667,0.513692 -0.50584,3.632569 -0.50584,12.215051 0,10.15644 0.0796,11.613106 0.6697396,12.265259 0.58294,0.644136 1.34676,0.740047 5.8944,0.740047 2.873572,0 5.56906,-0.184244 5.99001,-0.409604 z M 77.0198,53.125305 c 0.794444,-0.957252 -0.713388,-6.323922 -2.614014,-9.70564 -2.858416,-3.605204 0.382506,-0.63979 -3.853142,-5.237639 -3.412086,-3.683073 -8.596585,-6.832193 -12.613906,-7.655729 -2.94675,-0.604067 -11.606047,-0.865732 -12.616913,-0.381253 -0.45626,0.21867 -1.649044,0.495291 -2.650608,0.614699 -1.599899,0.190725 -3.37326,0.938278 -7.242744,3.053139 -1.726571,0.94366 -7.912199,7.399282 -8.65763,9.035486 -3.231212,7.092683 -3.807354,9.574815 -2.411206,10.387982 0.460272,0.268091 9.721774,0.416782 26.456718,0.424798 21.176052,0.01 25.829314,-0.08514 26.203445,-0.535843 z m 13.712612,0.210864 C 91.13085,53.083252 91.22048,50.238653 91.137091,40.493911 L 91.030014,27.976528 H 74.848531 c -14.170178,0 -16.196266,0.07663 -16.300192,0.616304 -0.08215,0.426115 0.478197,0.79027 1.815503,1.180074 1.063811,0.310071 2.480497,0.952501 3.148202,1.427603 0.667726,0.475119 1.76035,1.12775 2.428056,1.450317 0.667725,0.322569 2.762964,2.134379 4.656113,4.026228 2.5676,2.565871 3.825984,4.210829 4.953243,6.474819 1.631817,3.277392 2.721909,6.497677 2.728888,8.061659 0.004,0.538894 0.305757,1.31284 0.674126,1.719872 0.584477,0.645851 1.344245,0.73925 5.968953,0.733846 2.914587,-0.004 5.529538,-0.152341 5.811029,-0.331081 z"
       id="path7397"
       sodipodi:nodetypes="ccccccccccccccccccccccccssccccccccssscccccccccccccssssssssssccccsssscsccsscscssssscscss"
       inkscape:export-filename="C:\Users\SBE\Desktop\styles\reseaux\symbols\avaloir_grille.png"
       inkscape:export-xdpi="96"
       inkscape:export-ydpi="96" />
    <path
       style="fill:#895a44;fill-opacity:1;stroke:#895a44;stroke-width:1.265;stroke-miterlimit:4;stroke-dasharray:none;stroke-opacity:1"
       d="m -82.797039,165.16317 c -9.737339,-0.0614 -11.016377,-0.11773 -11.443229,-0.50403 -0.453972,-0.41084 -0.480567,-1.29456 -0.480567,-15.96863 0,-15.31443 0.0077,-15.54357 0.54837,-16.23087 l 0.54837,-0.69714 h 10.709561 c 11.540028,0 12.010628,0.0525 12.365828,1.37847 0.20492,0.76495 0.21557,30.30536 0.0112,31.06688 -0.0831,0.30968 -0.4089,0.66687 -0.72399,0.79375 -0.31509,0.12688 -5.50609,0.19959 -11.535553,0.16157 z m -5.172353,-2.45181 c 0.158919,-0.25714 -0.836003,-1.28786 -1.261339,-1.30672 -0.489891,-0.0217 -2.873625,-2.95062 -3.398718,-4.17599 -0.376063,-0.8776 -0.891729,-1.12319 -1.111086,-0.52917 -0.249994,0.67698 0.148666,5.10753 0.511855,5.68854 0.340701,0.54504 0.571385,0.59531 2.731663,0.59531 1.330371,0 2.432851,-0.11863 2.527625,-0.27197 z m 15.718936,-0.42517 c 0.45932,-0.58393 0.54771,-1.0673 0.54432,-2.97656 -0.004,-2.40429 -0.22847,-3.24265 -0.70135,-2.62268 -0.144,0.18879 -0.57156,0.88589 -0.95014,1.5491 -0.67064,1.17486 -2.3237,2.87006 -3.61514,3.70729 -1.08924,0.70614 -0.46011,1.03999 1.9598,1.03999 2.07683,0 2.24815,-0.0432 2.76251,-0.69714 z m -6.23989,-0.74884 c 0.83722,-0.4236 1.85903,-1.09205 2.27067,-1.48544 1.84381,-1.76204 3.33772,-4.87218 3.14431,-6.54605 l -0.0819,-0.70899 -9.493815,-0.0695 c -6.115485,-0.0448 -9.608561,0.0257 -9.816271,0.19809 -0.230335,0.19116 -0.261634,0.65234 -0.109559,1.61437 0.538245,3.40491 2.988852,6.23524 6.546129,7.56043 0.634909,0.23653 1.83504,0.33404 3.49275,0.28381 2.17496,-0.0659 2.736756,-0.18342 4.047716,-0.8467 z m 5.46534,-9.7364 c 0,-0.78733 -0.86064,-3.11966 -1.58166,-4.2863 -0.75675,-1.22445 -2.25049,-2.47378 -4.12375,-3.44903 -1.404838,-0.73137 -1.734356,-0.79305 -4.193469,-0.78491 -2.477563,0.008 -2.786476,0.0697 -4.310502,0.85766 -0.902923,0.46686 -2.137167,1.35585 -2.742764,1.97554 -1.348779,1.38017 -2.626527,3.95526 -2.626809,5.2939 l -2.09e-4,0.99219 h 9.789584 9.789579 z m -19.17967,-4.52847 c 0.622715,-1.31228 2.974554,-3.5343 4.509199,-4.2603 2.080784,-0.98437 3.647674,-1.28311 5.914798,-1.12772 3.382383,0.23183 5.889743,1.69162 8.116953,4.72567 0.5216,0.71057 1.0573,1.29195 1.19043,1.29195 0.38568,0 0.31236,-13.3176 -0.0755,-13.70541 -0.23557,-0.23558 -2.85918,-0.3175 -10.167555,-0.3175 -8.601822,0 -9.902748,0.0527 -10.265834,0.41577 -0.601289,0.60129 -0.631244,13.87173 -0.03131,13.87173 0.211454,0 0.575405,-0.40239 0.808781,-0.89419 z"
       id="path15430"
       inkscape:export-filename="C:\Users\SBE\Desktop\styles\reseaux\symbols\avaloir_tampon.png"
       inkscape:export-xdpi="96"
       inkscape:export-ydpi="96" />
  </g>
</svg>
