<?xml version="1.0" encoding="UTF-8" standalone="no"?>
<!-- Created with Inkscape (http://www.inkscape.org/) -->

<svg
   width="100mm"
   height="100mm"
   viewBox="0 0 100 100"
   version="1.1"
   id="svg5"
   inkscape:version="1.1 (c68e22c387, 2021-05-23)"
   sodipodi:docname="avaloir_tampon.svg"
   xmlns:inkscape="http://www.inkscape.org/namespaces/inkscape"
   xmlns:sodipodi="http://sodipodi.sourceforge.net/DTD/sodipodi-0.dtd"
   xmlns="http://www.w3.org/2000/svg"
   xmlns:svg="http://www.w3.org/2000/svg">
  <sodipodi:namedview
     id="namedview7"
     pagecolor="#ffffff"
     bordercolor="#666666"
     borderopacity="1.0"
     inkscape:pageshadow="2"
     inkscape:pageopacity="0.0"
     inkscape:pagecheckerboard="0"
     inkscape:document-units="mm"
     showgrid="false"
     inkscape:zoom="0.5"
     inkscape:cx="-497"
     inkscape:cy="137"
     inkscape:window-width="1920"
     inkscape:window-height="1017"
     inkscape:window-x="1912"
     inkscape:window-y="-8"
     inkscape:window-maximized="1"
     inkscape:current-layer="layer1"
     height="200mm" />
  <defs
     id="defs2" />
  <g
     inkscape:label="Calque 1"
     inkscape:groupmode="layer"
     id="layer1">
    <path
       style="fill:#895a44;fill-opacity:1;stroke:#895a44;stroke-width:5.00895;stroke-miterlimit:4;stroke-dasharray:none;stroke-opacity:1"
       d="m -284.49792,15.329237 c -2.75334,-0.145289 -3.22911,-0.287455 -4.12463,-1.232629 l -0.6187,-0.652993 v -30.576319 -30.576317 l 0.57909,-0.759218 c 0.31849,-0.41757 0.94122,-0.943972 1.38385,-1.169778 0.79535,-0.405763 1.27375,-0.410557 40.92437,-0.410557 h 40.11964 l 0.81346,0.734919 c 0.44741,0.404204 1.00965,1.140128 1.24938,1.635374 l 0.43592,0.900459 -0.0881,28.216619 c -0.0613,19.6908237 -0.15822,28.61278 -0.32089,29.527738 -0.36746,2.068162 -0.86935,2.995159 -1.97117,3.640865 l -0.95527,0.559833 -7.05705,0.173368 c -8.02448,0.197146 -66.5977,0.187688 -70.37005,-0.01149 z m 69.98731,-2.26751 c 3.72846,-0.233034 4.41957,-0.476598 5.15223,-1.815817 0.36852,-0.673612 0.4854,-1.214066 0.49056,-2.2685463 0.009,-2.041919 -0.35346,-2.716995 -2.0725,-3.849506 -1.93381,-1.273985 -8.99866,-4.66702604 -11.63175,-5.58637704 -11.92171,-4.16249096 -23.92999,-5.38557596 -35.11577,-3.57665896 -4.68839,0.758186 -10.40472,2.363981 -15.26113,4.28706396 -2.92267,1.15733804 -7.97032,3.79700004 -8.94221,4.67631804 l -0.92959,0.841035 -0.0908,1.898025 c -0.10719,2.242218 0.24007,3.4185753 1.26409,4.2820853 1.04787,0.883617 1.90296,1.131091 4.55574,1.318496 3.27752,0.231532 58.488,0.04971 62.58108,-0.206132 z m 5.28123,-11.5008943 c 0.5526,-1.41103304 0.65287,-37.4988797 0.11373,-40.9831627 -0.24956,-1.613747 -0.74736,-2.313562 -2.1631,-3.041404 -0.76802,-0.394843 -1.35118,-0.430625 -9.58975,-0.588445 -4.82461,-0.0924 -20.00132,-0.172278 -33.72602,-0.177464 l -24.954,-0.0094 -1.08566,0.622616 c -0.59711,0.342438 -1.37027,1.0144 -1.71811,1.493244 l -0.63246,0.870625 0.0683,20.251995 c 0.0531,15.7648697 0.12493,20.30863666 0.32399,20.50765066 0.31628,0.316194 0.91934,0.04747 3.97202,-1.76988496 4.71137,-2.804831 6.09013,-3.488862 11.03337,-5.47381 8.11105,-3.256968 11.80151,-3.8574617 22.47924,-3.6577257 7.428,0.138955 10.15932,0.5758557 15.98294,2.5566497 4.50113,1.530988 12.38763,5.442118 16.08603,7.97749996 1.34879,0.92464304 2.93881,1.77390704 3.32918,1.77821204 0.18622,0.0023 0.40246,-0.158666 0.48018,-0.357167 z"
       id="path5115"
       inkscape:export-filename="C:\Users\SBE\Desktop\styles\reseaux\symbols\avaloir.png"
       inkscape:export-xdpi="96"
       inkscape:export-ydpi="96" />
    <path
       style="fill:#895a44;fill-opacity:1;stroke:#895a44;stroke-width:2.39876;stroke-miterlimit:4;stroke-dasharray:none;stroke-opacity:1"
       d="m -147.1192,83.95531 c -0.1338,-2.95004 -0.10708,-14.559959 0.0596,-25.79983 l 0.30296,-20.436123 44.312,-0.111045 c 24.371585,-0.06104 44.723069,-0.01216 45.225553,0.109669 l 0.913524,0.220691 -0.104086,25.587266 -0.104086,25.587272 -45.180985,0.10289 -45.18096,0.10289 z m 22.72913,-7.2859 0.10927,-8.397031 h -8.5064 -8.5064 v 8.506401 8.50639 l 8.39703,-0.10927 8.39703,-0.10927 z m 20.63846,0 0.10935,-8.397031 h -8.70874 -8.70874 v 8.228401 c 0,4.52562 0.12497,8.35342 0.27777,8.50617 0.1528,0.15274 4.02248,0.22865 8.59935,0.1687 l 8.3216,-0.10927 z m 21.344584,7.68882 c 0.123029,-0.50077 0.172081,-4.27945 0.108871,-8.39701 l -0.115053,-7.486511 -8.599377,-0.109271 -8.599359,-0.10927 V 76.4926 c 0,4.53005 0.121433,8.35787 0.269784,8.50624 0.148352,0.14835 3.96911,0.26978 8.49049,0.26978 8.189035,0 8.221557,-0.004 8.444604,-0.91051 z m 17.908998,-7.6969 0.10927,-8.405082 -8.607592,0.10927 -8.607599,0.10927 -0.115053,7.486512 c -0.06341,4.11756 -0.01396,7.89991 0.110866,8.40521 l 0.225964,0.91868 8.387257,-0.10927 8.387258,-0.10947 z M -130.35805,65.43472 c 0.4438,-0.237504 0.87223,-1.045068 1.0198,-1.922201 0.6185,-3.67633 2.07582,-7.299898 4.26173,-10.596593 2.76617,-4.171796 5.57225,-6.856559 9.2719,-8.871055 3.06572,-1.669309 4.85087,-2.481097 5.45609,-2.481097 0.4289,0 0.62888,-0.260915 0.5428,-0.708182 -0.12664,-0.658029 -1.26785,-0.715737 -16.11553,-0.814816 -14.66296,-0.09789 -16.0209,-0.04987 -16.4851,0.583191 -0.37667,0.513692 -0.50584,3.632569 -0.50584,12.215051 0,10.15644 0.0796,11.613106 0.66974,12.265259 0.58294,0.644136 1.34676,0.740047 5.8944,0.740047 2.87357,0 5.56906,-0.184244 5.99001,-0.409604 z m 54.977851,-0.138582 c 0.794444,-0.957252 -0.713388,-6.323922 -2.614014,-9.70564 -2.858416,-3.605204 0.382506,-0.63979 -3.853142,-5.237639 -3.412086,-3.683073 -8.596585,-6.832193 -12.613906,-7.655729 -2.94675,-0.604067 -11.606049,-0.865732 -12.616909,-0.381253 -0.45626,0.21867 -1.64905,0.495291 -2.65061,0.614699 -1.5999,0.190725 -3.37326,0.938278 -7.24275,3.053139 -1.72657,0.94366 -7.9122,7.399282 -8.65763,9.035486 -3.23121,7.092683 -3.80735,9.574815 -2.4112,10.387982 0.46027,0.268091 9.72177,0.416782 26.45672,0.424798 21.176048,0.01 25.82931,-0.08514 26.203441,-0.535843 z m 13.712612,0.210864 c 0.398438,-0.252917 0.488068,-3.097516 0.404679,-12.842258 l -0.107077,-12.517383 h -16.181483 c -14.170178,0 -16.196266,0.07663 -16.300192,0.616304 -0.08215,0.426115 0.478197,0.79027 1.815503,1.180074 1.063811,0.310071 2.480497,0.952501 3.148202,1.427603 0.667726,0.475119 1.76035,1.12775 2.428056,1.450317 0.667725,0.322569 2.762964,2.134379 4.656113,4.026228 2.5676,2.565871 3.825984,4.210829 4.953243,6.474819 1.631817,3.277392 2.721909,6.497677 2.728888,8.061659 0.004,0.538894 0.305757,1.31284 0.674126,1.719872 0.584477,0.645851 1.344245,0.73925 5.968953,0.733846 2.914587,-0.004 5.529538,-0.152341 5.811029,-0.331081 z"
       id="path7397"
       sodipodi:nodetypes="ccccccccccccccccccccccccssccccccccssscccccccccccccssssssssssccccsssscsccsscscssssscscss"
       inkscape:export-filename="C:\Users\SBE\Desktop\styles\reseaux\symbols\avaloir_grille.png"
       inkscape:export-xdpi="96"
       inkscape:export-ydpi="96" />
    <path
       style="fill:#895a44;fill-opacity:1;stroke:#895a44;stroke-width:3.50431;stroke-miterlimit:4;stroke-dasharray:none;stroke-opacity:1"
       d="M 50.555217,96.292297 C 23.580762,96.122206 20.03756,95.966161 18.855091,94.896029 c -1.257597,-1.138112 -1.33127,-3.5862 -1.33127,-44.236428 0,-42.4241582 0.02133,-43.0589242 1.519099,-44.9628882 l 1.519099,-1.931222 h 29.667712 c 31.968279,0 33.271939,0.145435 34.255917,3.818648 0.567671,2.119071 0.597174,83.9521542 0.03103,86.0617232 -0.230205,0.857878 -1.132739,1.847369 -2.005603,2.198853 -0.872865,0.351484 -15.253016,0.552906 -31.955883,0.447582 z M 36.226723,89.500273 c 0.440238,-0.712331 -2.315903,-3.56764 -3.494172,-3.619886 -1.3571,-0.06011 -7.960539,-8.173831 -9.415156,-11.568361 -1.041773,-2.431135 -2.470275,-3.11147 -3.077939,-1.465911 -0.692536,1.875375 0.411835,14.148921 1.417944,15.758439 0.943813,1.509874 1.582856,1.649133 7.567275,1.649133 3.685405,0 6.739504,-0.32863 7.002048,-0.753414 z m 43.544724,-1.177809 c 1.272412,-1.617608 1.51727,-2.956643 1.507879,-8.245691 -0.01108,-6.660383 -0.632909,-8.982815 -1.942885,-7.265369 -0.39891,0.522987 -1.58334,2.4541 -2.632086,4.291329 -1.857812,3.254607 -6.437132,7.950664 -10.01469,10.269965 -3.017421,1.956155 -1.2746,2.880989 5.429054,2.880989 5.753251,0 6.227843,-0.119673 7.652728,-1.931223 z M 62.485653,86.248021 c 2.319273,-1.17346 5.1499,-3.025205 6.290228,-4.114978 5.107738,-4.881217 9.246179,-13.496952 8.710393,-18.13392 l -0.22688,-1.96405 -26.299843,-0.19253 c -16.941166,-0.124105 -26.617714,0.0712 -27.193114,0.548751 -0.638075,0.529553 -0.72478,1.807117 -0.303501,4.472141 1.491051,9.432309 8.279742,17.272912 18.13414,20.943964 1.75883,0.655237 5.083443,0.92536 9.675644,0.786213 6.025092,-0.182557 7.581384,-0.508112 11.213016,-2.345535 z M 77.625782,59.276167 c 0,-2.181068 -2.384152,-8.642108 -4.381527,-11.873943 -2.096355,-3.391981 -6.234326,-6.852886 -11.423646,-9.554531 -3.891694,-2.026047 -4.804527,-2.196914 -11.616782,-2.174364 -6.863365,0.02216 -7.719118,0.193083 -11.940987,2.375897 -2.501285,1.293299 -5.920398,3.755986 -7.598028,5.472657 -3.736398,3.823358 -7.276026,10.956893 -7.276807,14.665205 l -5.79e-4,2.748572 H 50.506611 77.625782 Z M 24.494105,46.731363 c 1.72505,-3.635289 8.240133,-9.790747 12.491419,-11.801918 5.764205,-2.726909 10.104816,-3.554481 16.385222,-3.124019 9.369904,0.642218 16.315813,4.686139 22.485649,13.091089 1.44494,1.968427 2.928941,3.578971 3.297738,3.578971 1.068414,0 0.865303,-36.892524 -0.20915,-37.966838 -0.652578,-0.6526062 -7.920524,-0.8795412 -28.166244,-0.8795412 -23.828837,0 -27.432672,0.14599 -28.438496,1.1517692 -1.665696,1.665699 -1.748677,38.427579 -0.08673,38.427579 0.585771,0 1.593991,-1.114704 2.240491,-2.477092 z"
       id="path15430"
       inkscape:export-filename="C:\Users\SBE\Desktop\styles\reseaux\symbols\avaloir_tampon.png"
       inkscape:export-xdpi="96"
       inkscape:export-ydpi="96" />
  </g>
</svg>
