<?xml version="1.0" encoding="UTF-8" standalone="no"?>
<!-- Created with Inkscape (http://www.inkscape.org/) -->

<svg
   width="100mm"
   height="100mm"
   viewBox="0 0 100 100"
   version="1.1"
   id="svg5"
   inkscape:version="1.1 (c68e22c387, 2021-05-23)"
   sodipodi:docname="avaloir.svg"
   xmlns:inkscape="http://www.inkscape.org/namespaces/inkscape"
   xmlns:sodipodi="http://sodipodi.sourceforge.net/DTD/sodipodi-0.dtd"
   xmlns="http://www.w3.org/2000/svg"
   xmlns:svg="http://www.w3.org/2000/svg">
  <sodipodi:namedview
     id="namedview7"
     pagecolor="#ffffff"
     bordercolor="#666666"
     borderopacity="1.0"
     inkscape:pageshadow="2"
     inkscape:pageopacity="0.0"
     inkscape:pagecheckerboard="0"
     inkscape:document-units="mm"
     showgrid="false"
     inkscape:zoom="0.5"
     inkscape:cx="-497"
     inkscape:cy="137"
     inkscape:window-width="1920"
     inkscape:window-height="1017"
     inkscape:window-x="1912"
     inkscape:window-y="-8"
     inkscape:window-maximized="1"
     inkscape:current-layer="layer1"
     height="200mm" />
  <defs
     id="defs2" />
  <g
     inkscape:label="Calque 1"
     inkscape:groupmode="layer"
     id="layer1">
    <path
       style="fill:#895a44;fill-opacity:1;stroke:#895a44;stroke-width:5.00895;stroke-miterlimit:4;stroke-dasharray:none;stroke-opacity:1"
       d="M 12.364575,84.120903 C 9.6112387,83.975614 9.1354657,83.833448 8.2399453,82.888274 L 7.6212519,82.235281 V 51.658962 21.082645 l 0.5790874,-0.759218 c 0.3184924,-0.41757 0.9412224,-0.943972 1.3838454,-1.169778 0.7953533,-0.405763 1.2737583,-0.410557 40.9243693,-0.410557 h 40.119649 l 0.813453,0.734919 c 0.447417,0.404204 1.009657,1.140128 1.249379,1.635374 l 0.435926,0.900459 -0.0881,28.216619 c -0.06129,19.690824 -0.158224,28.61278 -0.320897,29.527738 -0.367451,2.068162 -0.869347,2.995159 -1.971168,3.640865 l -0.955266,0.559833 -7.057047,0.173368 c -8.024482,0.197146 -66.597701,0.187688 -70.370057,-0.01149 z m 69.987315,-2.26751 c 3.728454,-0.233034 4.419571,-0.476598 5.152233,-1.815817 0.368511,-0.673612 0.485396,-1.214066 0.490552,-2.268546 0.0088,-2.041919 -0.353454,-2.716995 -2.072496,-3.849506 C 83.988372,72.645539 76.923516,69.252498 74.29043,68.333147 62.368714,64.170656 50.360436,62.947571 39.17466,64.756488 c -4.688395,0.758186 -10.404724,2.363981 -15.261135,4.287064 -2.92267,1.157338 -7.970316,3.797 -8.942211,4.676318 l -0.929587,0.841035 -0.09075,1.898025 c -0.107192,2.242218 0.240076,3.418575 1.264093,4.282085 1.047872,0.883617 1.902963,1.131091 4.55574,1.318496 3.277523,0.231532 58.488003,0.04971 62.58108,-0.206132 z M 87.633118,70.352499 C 88.185723,68.941466 88.28599,32.853619 87.74685,29.369336 87.497287,27.755589 86.999486,27.055774 85.583751,26.327932 84.815732,25.933089 84.232573,25.897307 75.994003,25.739487 71.169385,25.647087 55.992677,25.567209 42.26798,25.562023 l -24.953999,-0.0094 -1.085665,0.622616 c -0.597111,0.342438 -1.370266,1.0144 -1.718111,1.493244 l -0.632456,0.870625 0.06827,20.251995 c 0.05312,15.76487 0.124929,20.308637 0.323988,20.507651 0.316282,0.316194 0.919339,0.04747 3.972018,-1.769885 4.711375,-2.804831 6.090132,-3.488862 11.033374,-5.47381 8.111048,-3.256968 11.801514,-3.857462 22.479235,-3.657726 7.428007,0.138955 10.159327,0.575856 15.982945,2.55665 4.501128,1.530988 12.387628,5.442118 16.086029,7.9775 1.348792,0.924643 2.938808,1.773907 3.329182,1.778212 0.186215,0.0023 0.402454,-0.158666 0.480182,-0.357167 z"
       id="path5115"
       inkscape:export-filename="C:\Users\SBE\Desktop\styles\reseaux\symbols\avaloir.png"
       inkscape:export-xdpi="96"
       inkscape:export-ydpi="96" />
    <path
       style="fill:#895a44;fill-opacity:1;stroke:#895a44;stroke-width:1.203;stroke-miterlimit:4;stroke-dasharray:none;stroke-opacity:1"
       d="m -112.8356,117.39074 c -0.0671,-1.47947 -0.0537,-7.30194 0.0299,-12.93883 l 0.15194,-10.248887 22.222839,-0.05569 c 12.222555,-0.03061 22.428995,-0.0061 22.680995,0.055 l 0.45814,0.110678 -0.0522,12.832229 -0.0522,12.83223 -22.658642,0.0516 -22.658632,0.0516 z m 11.39885,-3.65394 0.0548,-4.21118 h -4.26603 -4.26603 v 4.26603 4.26603 l 4.21118,-0.0548 4.21118,-0.0548 z m 10.350363,0 0.05484,-4.21118 h -4.367504 -4.367506 v 4.12661 c 0,2.26964 0.06267,4.18931 0.139304,4.26592 0.07663,0.0766 2.017307,0.11467 4.312646,0.0846 l 4.173349,-0.0548 z m 10.704488,3.85601 c 0.0617,-0.25114 0.0863,-2.14618 0.0546,-4.21117 l -0.0577,-3.75455 -4.31266,-0.0548 -4.312651,-0.0548 v 4.13064 c 0,2.27186 0.0609,4.19154 0.135299,4.26595 0.0744,0.0744 1.990542,0.1353 4.258052,0.1353 4.10687,0 4.12318,-0.002 4.23504,-0.45663 z m 8.981513,-3.86006 0.0548,-4.21522 -4.31678,0.0548 -4.316783,0.0548 -0.0577,3.75455 c -0.0318,2.06499 -0.007,3.96187 0.0556,4.21528 l 0.113323,0.46073 4.20628,-0.0548 4.20628,-0.0549 z m -33.029354,-5.63024 c 0.22257,-0.11911 0.43743,-0.52411 0.51144,-0.964 0.31018,-1.84371 1.04104,-3.66096 2.13729,-5.31428 1.38726,-2.092191 2.79453,-3.438622 4.649936,-4.448909 1.537488,-0.837172 2.432756,-1.244291 2.736277,-1.244291 0.215096,0 0.315388,-0.130851 0.272218,-0.355159 -0.06351,-0.330007 -0.635837,-0.358948 -8.082071,-0.408637 -7.3536,-0.04909 -8.03462,-0.02501 -8.26742,0.292475 -0.1889,0.257621 -0.25368,1.821764 -0.25368,6.125951 0,5.09354 0.0399,5.82407 0.33588,6.15113 0.29235,0.32304 0.67541,0.37114 2.95609,0.37114 1.44112,0 2.79293,-0.0924 3.00404,-0.20542 z m 27.571854,-0.0695 c 0.39842,-0.48007 -0.35777,-3.1715 -1.31095,-4.86746 -1.43352,-1.80804 0.19183,-0.32086 -1.932383,-2.62672 -1.71119,-1.847092 -4.31126,-3.426402 -6.32598,-3.839412 -1.47782,-0.302945 -5.82053,-0.434172 -6.327488,-0.191202 -0.228818,0.109665 -0.827009,0.248393 -1.329302,0.308277 -0.802363,0.09565 -1.691718,0.470554 -3.632297,1.531175 -0.86589,0.473253 -3.968034,3.710802 -4.341874,4.531372 -1.62048,3.55704 -1.90942,4.80185 -1.20924,5.20966 0.23083,0.13445 4.875551,0.20902 13.268266,0.21304 10.619968,0.005 12.953618,-0.0427 13.141248,-0.26873 z m 6.87699,0.10575 c 0.19982,-0.12684 0.24477,-1.55343 0.20295,-6.4405 l -0.0537,-6.277573 h -8.11515 c -7.106463,0 -8.122563,0.03843 -8.174683,0.309082 -0.0412,0.2137 0.23982,0.396327 0.91049,0.591817 0.53351,0.155503 1.24399,0.477687 1.57885,0.715955 0.33487,0.238276 0.88283,0.565576 1.21769,0.727346 0.33487,0.161771 1.38565,1.070409 2.33508,2.019187 1.287673,1.286806 1.918763,2.111766 2.484093,3.247176 0.81837,1.64364 1.36506,3.25864 1.36856,4.04299 0.002,0.27026 0.15334,0.6584 0.33808,0.86253 0.29312,0.3239 0.67415,0.37074 2.99348,0.36803 1.46169,-0.002 2.77311,-0.0764 2.91428,-0.16604 z"
       id="path7397"
       sodipodi:nodetypes="ccccccccccccccccccccccccssccccccccssscccccccccccccssssssssssccccsssscsccsscscssssscscss"
       inkscape:export-filename="C:\Users\SBE\Desktop\styles\reseaux\symbols\avaloir_grille.png"
       inkscape:export-xdpi="96"
       inkscape:export-ydpi="96" />
    <path
       style="fill:#895a44;fill-opacity:1;stroke:#895a44;stroke-width:1.265;stroke-miterlimit:4;stroke-dasharray:none;stroke-opacity:1"
       d="m -82.797039,165.16317 c -9.737339,-0.0614 -11.016377,-0.11773 -11.443229,-0.50403 -0.453972,-0.41084 -0.480567,-1.29456 -0.480567,-15.96863 0,-15.31443 0.0077,-15.54357 0.54837,-16.23087 l 0.54837,-0.69714 h 10.709561 c 11.540028,0 12.010628,0.0525 12.365828,1.37847 0.20492,0.76495 0.21557,30.30536 0.0112,31.06688 -0.0831,0.30968 -0.4089,0.66687 -0.72399,0.79375 -0.31509,0.12688 -5.50609,0.19959 -11.535553,0.16157 z m -5.172353,-2.45181 c 0.158919,-0.25714 -0.836003,-1.28786 -1.261339,-1.30672 -0.489891,-0.0217 -2.873625,-2.95062 -3.398718,-4.17599 -0.376063,-0.8776 -0.891729,-1.12319 -1.111086,-0.52917 -0.249994,0.67698 0.148666,5.10753 0.511855,5.68854 0.340701,0.54504 0.571385,0.59531 2.731663,0.59531 1.330371,0 2.432851,-0.11863 2.527625,-0.27197 z m 15.718936,-0.42517 c 0.45932,-0.58393 0.54771,-1.0673 0.54432,-2.97656 -0.004,-2.40429 -0.22847,-3.24265 -0.70135,-2.62268 -0.144,0.18879 -0.57156,0.88589 -0.95014,1.5491 -0.67064,1.17486 -2.3237,2.87006 -3.61514,3.70729 -1.08924,0.70614 -0.46011,1.03999 1.9598,1.03999 2.07683,0 2.24815,-0.0432 2.76251,-0.69714 z m -6.23989,-0.74884 c 0.83722,-0.4236 1.85903,-1.09205 2.27067,-1.48544 1.84381,-1.76204 3.33772,-4.87218 3.14431,-6.54605 l -0.0819,-0.70899 -9.493815,-0.0695 c -6.115485,-0.0448 -9.608561,0.0257 -9.816271,0.19809 -0.230335,0.19116 -0.261634,0.65234 -0.109559,1.61437 0.538245,3.40491 2.988852,6.23524 6.546129,7.56043 0.634909,0.23653 1.83504,0.33404 3.49275,0.28381 2.17496,-0.0659 2.736756,-0.18342 4.047716,-0.8467 z m 5.46534,-9.7364 c 0,-0.78733 -0.86064,-3.11966 -1.58166,-4.2863 -0.75675,-1.22445 -2.25049,-2.47378 -4.12375,-3.44903 -1.404838,-0.73137 -1.734356,-0.79305 -4.193469,-0.78491 -2.477563,0.008 -2.786476,0.0697 -4.310502,0.85766 -0.902923,0.46686 -2.137167,1.35585 -2.742764,1.97554 -1.348779,1.38017 -2.626527,3.95526 -2.626809,5.2939 l -2.09e-4,0.99219 h 9.789584 9.789579 z m -19.17967,-4.52847 c 0.622715,-1.31228 2.974554,-3.5343 4.509199,-4.2603 2.080784,-0.98437 3.647674,-1.28311 5.914798,-1.12772 3.382383,0.23183 5.889743,1.69162 8.116953,4.72567 0.5216,0.71057 1.0573,1.29195 1.19043,1.29195 0.38568,0 0.31236,-13.3176 -0.0755,-13.70541 -0.23557,-0.23558 -2.85918,-0.3175 -10.167555,-0.3175 -8.601822,0 -9.902748,0.0527 -10.265834,0.41577 -0.601289,0.60129 -0.631244,13.87173 -0.03131,13.87173 0.211454,0 0.575405,-0.40239 0.808781,-0.89419 z"
       id="path15430"
       inkscape:export-filename="C:\Users\SBE\Desktop\styles\reseaux\symbols\avaloir_tampon.png"
       inkscape:export-xdpi="96"
       inkscape:export-ydpi="96" />
  </g>
</svg>
